<svg xmlns="http://www.w3.org/2000/svg" xmlns:xlink="http://www.w3.org/1999/xlink" viewBox="0 0 4000 2000">
  <defs>
    <style>
      .cls-1 {
        clip-path: url(#clip-Artboard_1);
      }

      .cls-2, .cls-3, .cls-4, .cls-5 {
        fill: #fff;
      }

      .cls-3 {
        font-size: 80px;
        font-family: Consolas;
      }

      .cls-4 {
        font-size: 340px;
        font-family: Exotic350BT-DemiBold, Exotc350 DmBd BT;
        font-weight: 300;
      }

      .cls-5 {
        stroke: #707070;
      }

      .cls-6, .cls-9 {
        fill: #3ddc84;
      }

      .cls-6 {
        font-size: 600px;
        font-family: Impact;
      }

      .cls-7 {
        stroke: none;
      }

      .cls-8 {
        fill: none;
      }
    </style>
    <clipPath id="clip-Artboard_1">
      <rect width="4000" height="2000"/>
    </clipPath>
  </defs>
  <g id="Artboard_1" data-name="Artboard – 1" class="cls-1">
    <rect class="cls-9" width="4000" height="2000"/>
    <path id="Path_7" data-name="Path 7" class="cls-2" d="M1884.76,832.766a42.672,42.672,0,0,1,2.89-15.807,39.034,39.034,0,0,1,8.11-12.78,37.4,37.4,0,0,1,12.47-8.546,40.079,40.079,0,0,1,15.91-3.1,35.784,35.784,0,0,1,11.93,1.89,32.683,32.683,0,0,1,10.38,6.2v-6.58h19.61v77.444h-19.61v-6.58a32.645,32.645,0,0,1-10.38,6.2A35.732,35.732,0,0,1,1924.14,873a40.062,40.062,0,0,1-15.91-3.1,37.377,37.377,0,0,1-12.47-8.545,39.032,39.032,0,0,1-8.11-12.782A42.659,42.659,0,0,1,1884.76,832.766Zm41.93,22.159a25.672,25.672,0,0,0,4.86-.491,23.136,23.136,0,0,0,5.14-1.664,24.052,24.052,0,0,0,5.05-3.139,28.4,28.4,0,0,0,4.71-4.84v-24.05a27.251,27.251,0,0,0-4.71-4.8,26.43,26.43,0,0,0-5.06-3.139,21.746,21.746,0,0,0-5.13-1.7,25.757,25.757,0,0,0-4.86-.492,21.89,21.89,0,0,0-8.54,1.664,20.913,20.913,0,0,0-6.91,4.651,21.626,21.626,0,0,0-4.59,7.034,24.211,24.211,0,0,0,0,17.621,21.622,21.622,0,0,0,4.59,7.033,20.9,20.9,0,0,0,6.91,4.652A21.926,21.926,0,0,0,1926.69,854.925Zm88.4-43.275c-9.29.066-17.36,6.409-17.36,15.823v44.015h-19.62V828c.11-18.134,16.15-35.226,36.7-35.47h.55c20.55.244,36.59,17.336,36.7,35.47v43.486h-19.62V827.473c0-9.414-8.07-15.757-17.36-15.823Zm46.25,21.116a42.679,42.679,0,0,1,2.9-15.807,39.009,39.009,0,0,1,8.1-12.78,37.495,37.495,0,0,1,12.47-8.546,40.078,40.078,0,0,1,15.91-3.1,36.066,36.066,0,0,1,11.97,1.89,32.438,32.438,0,0,1,10.35,6.127V770.827h19.61V871.488h-19.61v-6.5a31.241,31.241,0,0,1-10.35,6.163A36.678,36.678,0,0,1,2100.72,873a40.061,40.061,0,0,1-15.91-3.1,37.477,37.477,0,0,1-12.47-8.545,39,39,0,0,1-8.1-12.782A42.666,42.666,0,0,1,2061.34,832.766Zm41.93,22.159a25.669,25.669,0,0,0,4.86-.491,23.134,23.134,0,0,0,5.14-1.664,24.376,24.376,0,0,0,5.06-3.139,29.172,29.172,0,0,0,4.71-4.84v-24.05a27.967,27.967,0,0,0-4.71-4.8,26.746,26.746,0,0,0-5.06-3.139,21.964,21.964,0,0,0-5.14-1.7,25.754,25.754,0,0,0-4.86-.492,21.84,21.84,0,0,0-8.53,1.664,20.71,20.71,0,0,0-6.91,4.651,21.654,21.654,0,0,0-4.6,7.034,24.212,24.212,0,0,0,0,17.621,21.65,21.65,0,0,0,4.6,7.033,20.7,20.7,0,0,0,6.91,4.652A21.876,21.876,0,0,0,2103.27,854.925Zm131.22,0a21.328,21.328,0,0,0,8.3-1.626,20.531,20.531,0,0,0,6.8-4.575,21.4,21.4,0,0,0,4.55-7,23.331,23.331,0,0,0,1.66-8.962,22.77,22.77,0,0,0-1.69-8.886,21.8,21.8,0,0,0-4.64-7,21.471,21.471,0,0,0-6.79-4.613,20.519,20.519,0,0,0-8.19-1.664,21.04,21.04,0,0,0-15.09,6.277,22.191,22.191,0,0,0-4.6,7,22.77,22.77,0,0,0-1.7,8.887,23.522,23.522,0,0,0,1.66,8.961,21.59,21.59,0,0,0,4.56,7,20.487,20.487,0,0,0,6.79,4.575A21.579,21.579,0,0,0,2234.49,854.925Zm0,18.075a43.105,43.105,0,0,1-16.14-3.025,41.182,41.182,0,0,1-13.24-8.433,39.728,39.728,0,0,1-8.95-12.78,38.866,38.866,0,0,1-3.29-16,38.044,38.044,0,0,1,3.29-15.73,40.653,40.653,0,0,1,8.91-12.781,42.517,42.517,0,0,1,58.76,0,40.688,40.688,0,0,1,8.92,12.781,38.04,38.04,0,0,1,3.28,15.73,38.861,38.861,0,0,1-3.28,16,39.723,39.723,0,0,1-8.95,12.78,41.267,41.267,0,0,1-13.21,8.433A42.751,42.751,0,0,1,2234.49,873Zm60.14-85.019a11.309,11.309,0,0,1-4.51-.913,12.033,12.033,0,0,1-3.72-2.48,11.765,11.765,0,0,1-2.53-3.648,10.914,10.914,0,0,1,0-8.863,11.521,11.521,0,0,1,2.53-3.684,12.053,12.053,0,0,1,3.72-2.481,11.31,11.31,0,0,1,4.51-.912,11.542,11.542,0,0,1,4.54.912,11.9,11.9,0,0,1,3.76,2.481,11.71,11.71,0,0,1,2.54,3.684,10.933,10.933,0,0,1,.93,4.45,10.691,10.691,0,0,1-.93,4.414,11.865,11.865,0,0,1-6.3,6.127A11.525,11.525,0,0,1,2294.63,787.981Zm-9.81,6.063h19.61v77.444h-19.61Zm28.63,38.722a42.674,42.674,0,0,1,2.9-15.807,39.009,39.009,0,0,1,8.1-12.78,37.5,37.5,0,0,1,12.47-8.546,40.08,40.08,0,0,1,15.91-3.1,36.068,36.068,0,0,1,11.97,1.89,32.437,32.437,0,0,1,10.35,6.127V770.827h19.61V871.488h-19.61v-6.5a31.24,31.24,0,0,1-10.35,6.163A36.723,36.723,0,0,1,2352.83,873a40.063,40.063,0,0,1-15.91-3.1,37.479,37.479,0,0,1-12.47-8.545,39,39,0,0,1-8.1-12.782A42.662,42.662,0,0,1,2313.45,832.766Zm41.93,22.159a25.671,25.671,0,0,0,4.86-.491,23.136,23.136,0,0,0,5.14-1.664,24.045,24.045,0,0,0,5.05-3.139,28.812,28.812,0,0,0,4.72-4.84v-24.05a27.637,27.637,0,0,0-4.72-4.8,26.354,26.354,0,0,0-5.05-3.139,21.966,21.966,0,0,0-5.14-1.7,25.756,25.756,0,0,0-4.86-.492,21.84,21.84,0,0,0-8.53,1.664,20.709,20.709,0,0,0-6.91,4.651,21.65,21.65,0,0,0-4.6,7.034,24.209,24.209,0,0,0,0,17.621,21.645,21.645,0,0,0,4.6,7.033,20.8,20.8,0,0,0,6.91,4.652A21.876,21.876,0,0,0,2355.38,854.925Zm-164.37-43.508c-13.15,0-18.94,6.642-18.94,16.056v44.015h-19.62V828c.11-18.134,10.81-35.961,38.56-35.961" transform="translate(90 -29)"/>
    <path id="Path_6" data-name="Path 6" class="cls-2" d="M2028.67,616.29a76.534,76.534,0,0,0-28.02-27.979,77.594,77.594,0,0,0-77.3,0,76.534,76.534,0,0,0-28.02,27.979,76.965,76.965,0,0,0,42.31,111.563c1.8.334,3.14.1,4.01-.7a3.94,3.94,0,0,0,1.3-3c0-.2-.02-2-.05-5.406s-.05-6.374-.05-8.907l-2.31.4a29.344,29.344,0,0,1-5.56.35,42.431,42.431,0,0,1-6.97-.7,15.57,15.57,0,0,1-6.72-3,12.715,12.715,0,0,1-4.41-6.156l-1-2.3a24.967,24.967,0,0,0-3.16-5.105,12.113,12.113,0,0,0-4.36-3.8l-.7-.5a7.665,7.665,0,0,1-1.31-1.2,5.5,5.5,0,0,1-.9-1.4c-.2-.468-.03-.852.5-1.153a6.554,6.554,0,0,1,2.91-.447l2.01.3a14.653,14.653,0,0,1,4.96,2.4,16.163,16.163,0,0,1,4.86,5.2,17.619,17.619,0,0,0,5.57,6.257,11.806,11.806,0,0,0,6.56,2.151,28.624,28.624,0,0,0,5.72-.5,20.1,20.1,0,0,0,4.51-1.5q.9-6.71,4.91-10.311a68.929,68.929,0,0,1-10.28-1.8,40.912,40.912,0,0,1-9.42-3.905,27.051,27.051,0,0,1-8.07-6.706,32.211,32.211,0,0,1-5.26-10.511,49.907,49.907,0,0,1-2.06-15.016,29.173,29.173,0,0,1,7.92-20.622q-3.705-9.108.7-20.42,2.91-.9,8.63,1.351a60.151,60.151,0,0,1,8.37,3.855q2.655,1.6,4.26,2.7a72.509,72.509,0,0,1,38.5,0l3.81-2.4a54.115,54.115,0,0,1,9.22-4.406q5.31-2,8.13-1.1,4.5,11.312.8,20.42a29.175,29.175,0,0,1,7.92,20.622,50.4,50.4,0,0,1-2.06,15.065,31.007,31.007,0,0,1-5.31,10.511,27.975,27.975,0,0,1-8.12,6.657,41.017,41.017,0,0,1-9.43,3.9,68.423,68.423,0,0,1-10.27,1.8q5.205,4.5,5.21,14.214v21.12a4,4,0,0,0,1.25,3q1.26,1.2,3.96.7a76.99,76.99,0,0,0,42.31-111.559Z" transform="translate(90 -8)"/>
    <text id="A_wrapper_on_Android_s_In-App_purchase_to_make_developer_s_life_easy." data-name="A wrapper on Android&apos;s In-App purchase to 
make developer&apos;s life easy." class="cls-3" transform="translate(1975 1317)"><tspan x="0" y="0">A wrapper on Android&apos;s In-App purchase to </tspan><tspan x="0" y="94">make developer&apos;s life easy.</tspan></text>
    <text id="EasyIAP" class="cls-4" transform="translate(1975 1162)"><tspan x="0" y="0">EasyIAP</tspan></text>
    <g id="Ellipse_2" data-name="Ellipse 2" class="cls-5" transform="translate(355 400)">
      <circle class="cls-7" cx="600" cy="600" r="600"/>
      <circle class="cls-8" cx="600" cy="600" r="599.5"/>
    </g>
    <text id="_" data-name="$$" class="cls-6" transform="translate(627 1239)"><tspan x="0" y="0">$$</tspan></text>
  </g>
</svg>
